<?xml version="1.0" encoding="UTF-8" standalone="no" ?>
<svg id="esantiniLogoSVG" xmlns:rdf="http://www.w3.org/1999/02/22-rdf-syntax-ns#" xmlns="http://www.w3.org/2000/svg" height="70.7mm" viewBox="0 0 408.99785 250.4088" width="115mm" version="1.1" xmlns:cc="http://creativecommons.org/ns#" xmlns:xlink="http://www.w3.org/1999/xlink" xmlns:dc="http://purl.org/dc/elements/1.1/">
  <metadata id="metadata61">
    <rdf:RDF>
      <cc:Work rdf:about="">
        <dc:format>image/svg+xml</dc:format>
        <dc:type rdf:resource="http://purl.org/dc/dcmitype/StillImage" />
        <dc:title/>
      </cc:Work>
    </rdf:RDF>
  </metadata>
  <defs
     id="defs4142">
    <filter
       id="filter4707"
       style="color-interpolation-filters:sRGB">
      <feGaussianBlur
         in="SourceGraphic"
         id="feGaussianBlur4709"
         stdDeviation="4" />
      <feSpecularLighting
         result="result1"
         specularExponent="25"
         specularConstant="1"
         surfaceScale="3"
         id="feSpecularLighting4718">
        <feDistantLight
           elevation="40"
           azimuth="230"
           id="feDistantLight4720" />
      </feSpecularLighting>
      <feComposite
         result="result2"
         k3="1"
         in="SourceGraphic"
         k2="1"
         operator="arithmetic"
         in2="result1"
         id="feComposite4722" />
      <feComposite
         operator="in"
         in2="SourceGraphic"
         id="feComposite4724" />
    </filter>
  </defs>
  <g id="g4314">
    <g id="eSantiniGroup" style="filter:url(#filter4707)">
      <path id="letterS" style="fill:#344E41"
        d="m20.5 170c-14.7-2.38-11-18.5-2.27-26.4 6.29-5.69 18-17.3 23.2-17-7.02 10.4-21.1 16.7-23.8 28.9-2.35 10.6 21.1 8.49 30.3 6.82 15.6-2.84 30.2-8.66 43.2-18.1 9.3-6.77 12.3-17.9 7.87-28.3-8-18.8-24.9-35.1-23-57 1.62-18.8 16.8-33.1 31.2-43.3 12.6-8.92 29.8-16.4 45.2-10.4 13.6 5.4 8.02 29.7-3.73 30.9-9.76.96 6.97-19.8-8.08-19.7-17.3.0596-31.5 12.4-42 24.8-10.2 12.1-10.1 29.2-1.37 42.7 8.87 13.7 21.1 29.3 17.3 46.4-4.28 19.2-25.7 28-42.7 34.2-16.1 5.87-33.8 8.37-51 5.58z" />
      <g id="whiteLettersGroup" style="fill:#588157">
        <path id="letterE" 
          d="m21.5 138c1.45 2.54 4.51 4.01 8.51 4.01 8.51 0 18.6-6.46 30.1-20 2.08-2.45 3.51-3.51 5.01-3.51.501 0 1.5.501 2 1 .501.501.501 1 .501 1.5 0 2.5-3.51 7.01-10 13.5-5.01 5.01-10.4 9.12-16.6 12.4-5.91 3.2-11.5 5.1-16.5 5.1-5.01 0-9.06-1.96-12-5.51-2.05-2.46-3.01-6.01-3.01-10 0-11.5 5.51-23 16.5-34.1 9.02-9.02 16.5-13.5 23-13.5 2 0 3.6.545 5.07 1.59 2.04 1.46 2.44 3.41 2.44 5.42 0 3.51-1.51 8.01-5.01 13.5-7.02 11-17 18.4-31.1 22.9.011.601 0 1.18.0445 2.18s.490 2.54 1.04 3.52zm24.5-32c1-1.5 1.5-3.01 1.5-4.51s-.501-2-2-2c-2 0-4.5 1.51-7.51 4.02-6.01 5.01-10.6 11-14.5 20.3 3.46-.941 7.97-3.27 12-6.02 4.04-2.75 7.51-7.32 10.5-11.8z" />
        <path id="letterA" 
          d="m151 135c-3.93 6.32-7.65 13.5-14.6 17-4.17 2.1-9.73 1.09-12.4-2.91-3.99-4.98-3.27-11.8-2.19-17.6 2.28-10.6 7.13-20.6 13.6-29.2 5.19-6.56 11.6-12.5 19.3-15.8 4.99-1.99 11.7-2.37 15.6 1.97 2.56 2.81 1.98 6.85-.243 11.1.623 1.15 2.5 3.07.684 6.93-2.15 4.23-4.8 8.22-6.4 12.7-2.56 6.87-5.43 14.1-4.65 21.6.366 3.05 2.44 5.59 5.23 6.79 3.08 1.05 4.96 5.41 2.47 7.92-3.58 3.22-9.14 1.25-12.1-1.83-3.81-3.83-5.3-9.43-4.67-14.7.085-1.28.231-2.55.412-3.82zm.4-35.9c-6.08 4.81-10.2 11.6-14 18.2-3.35 6.2-6.19 13.1-5.74 20.3.459 3.86 2.77 5.43 6.57 3.74 4.75-2.74 7.5-7.77 10.3-12.3 4.89-8.09 8.08-17.1 13.3-25 1.23-1.66 2.38-2.4 2.76-2.65-.813-1.11-2.17-3.29-3.09-3.91-3.35-2.27-7.37-.399-10.1 1.62z" />
        <path id="letterN1" 
          d="m223 121c1.38-2.59 5.04-12.6 2.52-15.1-.503-.504-1.46-1.64-2.52-2.01-14.6-5.17-36.2 30.2-34.8 40.3.97 6.94-5.27 5.15-5.76 5.03-2.56-.639-3.93-3.37-3.31-7.55 1.8-12.1 16.6-39.3 23.7-50.4 1.96-3.06 5.04-8.56 8.06-5.54 1.01 1.01 1.51 2.52 1.51 3.53 0 1.51-1.35 4.88-3.02 7.55-.368.588-1.22 2.24-1.51 3.02 2.02-2.01 6.61-3.9 11.1-4.65 10.6-1.77 22.7 2.17 15.6 20.8-.404 1.05-2.51 5.54-5.54 11.6-2.01 4.03-8.19 12.1-7.56 18.1.373 3.54 3.05 3.44 3.91 4.58.676.901 1.13 2.97.121 3.98-3.02 3.02-7.52.806-10.6-2.54-6.15-6.66.902-17.2 8.09-30.7z" />
        <path id="letterT" 
          d="m260 109c-3.95 8.89-7.75 18.2-7.99 28.1-.147 5.93 6.68 5.65 10.1 2.34 5.58-5.43 9.89-12 14.5-18.2 2.41-3.28 11.8-5.63 7.05 4.29-.854 1.79-4.95 6.72-8.96 12-4.95 6.48-10.9 13.2-19.2 15.3-6.45 1.66-12.9-3.81-13.3-10.3-.794-12.7 3.84-25 9.11-36.3 2.56-5.5 5.44-10.8 8.25-16.2-3.39 1.02-8.57 2.3-10.6-1.44-2.32-4.32 3.16-6.34 6.67-7.52 3.8-1.29 6.68-1.81 11.1-3.48 3.94-5.08 12.1-15.7 17.8-23.7 2.81-3.88 10.3-3.18 8.69 1.98-2.12 6.92-6.79 11.3-11.1 18.1 5.84-1.35 11.8-3.31 17.8-2.84 4.49.345 5.23 8.34.519 8.75-9.32.819-18.1 4.06-27 6.96-5.22 6.94-9.91 14.2-13.4 22.2z" />
        <path id="letterI1" 
          d="m316 92.1c.672.896 1.05 1.46 1.05 2.47 0 1-1.16 3.39-2.94 6.05-7.24 10.9-12.1 20-15.1 27.5-3.01 7.51-6.07 15-8.51 23-1.06 3.49-3.01 5.01-5.01 5.01-1.5 0-2.58-.451-3.43-1.58-.672-.896-1.08-1.92-1.08-2.92 0-2 2.01-9.01 6.51-20.5 3.52-9.01 8.96-19.6 16.5-30.6 2.45-3.55 4.51-6.01 5.51-7.51s2.5-2 3.51-2.25c1-.25 2.11.158 2.96 1.29z" />
        <path id="letterN2" 
          d="m351 123c1.38-2.59 5.04-12.6 2.52-15.1-.503-.504-1.46-1.64-2.52-2.01-14.6-5.17-36.2 30.2-34.8 40.3.97 6.94-5.27 5.15-5.76 5.03-2.56-.639-3.93-3.37-3.31-7.55 1.8-12.1 16.6-39.3 23.7-50.4 1.96-3.06 5.04-8.56 8.06-5.54 1.01 1.01 1.51 2.52 1.51 3.53 0 1.51-1.35 4.88-3.02 7.55-.368.588-1.22 2.24-1.51 3.02 2.02-2.01 6.61-3.9 11.1-4.65 10.6-1.77 22.7 2.17 15.6 20.8-.404 1.05-2.51 5.54-5.54 11.6-2.01 4.03-8.19 12.1-7.56 18.1.373 3.54 3.05 3.44 3.91 4.58.676.901 1.13 2.97.121 3.98-3.02 3.02-7.52.806-10.6-2.54-6.15-6.66.902-17.2 8.09-30.7z" />
        <path id="letterI2" 
          d="m399 92.1c.672.896 1.05 1.46 1.05 2.47 0 1-1.16 3.39-2.94 6.05-7.24 10.9-12.1 20-15.1 27.5-3.01 7.51-6.07 15-8.51 23-1.06 3.49-3.01 5.01-5.01 5.01-1.5 0-2.58-.451-3.43-1.58-.672-.896-1.08-1.92-1.08-2.92 0-2 2.01-9.01 6.51-20.5 3.52-9.01 8.96-19.6 16.5-30.6 2.45-3.55 4.51-6.01 5.51-7.51s2.5-2 3.51-2.25c1-.25 2.11.158 2.96 1.29z" />
      </g>
    </g>
    <g id="webDevelopingGroup">
      <g id="webDevelopingWhite" style="fill:#DAD7CD" transform="translate(-1.42 1.42)">
        <g id="webDevelopingLetters">
          <path id="webDevelopingW" 
            d="m28.9 217c-5.44-.114-15.1.344-17.3-1.78-4.55-4.44-4.09-15.1-4.07-19.3.0102-2.17-.333-15.8 1.56-15.8 1.9-.0193 1.26 5.87 1.26 14 .003 11 .259 13.3 1.81 15.8 1.69 2.77 2.25 2.54 8.01 2.84l6.16.317-.0462-16.3c-.001-13-.349-16.4 1.17-16.3 1.68.0234 1.24 4.63 1.43 16.5l.257 16.1h5.99c3.3 0 6.98.692 7.7.194 1.16-.806 1.26-.944 1.26-16.1 0-13.2-.152-16.7 1.17-16.7 1.54-.0132 1.24 4.68 1.44 16.7.262 16 1.29 18.3-2.23 19.4-2.44.765-10.4.575-15.6.466z" />
          <path id="webDevelopingE" 
            d="m61.3 180c-1.95-.013-6.02.0689-7.47.926-2.22 1.31-2.09 1.61-2.38 2.14-2.2 4.09-2.08 11.8-1.95 16.8.161 6.44-.344 11.8 2.08 14.5 1.48 1.64 11.3 2.31 11.3 2.31 5.67.285 9.58.291 11 .172.905-.0744 1.44-1.38.922-2.8-.308-.838-3.3-1.17-10.5-1.17-11.3 0-12-.0451-12.1-6.29l-.0703-4.52 9.14.084c9.49.0998 11-1.04 11.9-2.36 2.32-3.56 2.68-13.4.229-17.2-1.62-2.48-1.88-2.54-11-2.54 0 0-.412-.0152-1.06-.0195zm1.09 3.77c6.46 0 8.44.326 9.46 1.55 1.62 1.95 1.68 9.87.0957 11.8-.905 1.09-3.44 1.47-10.5 1.6l-9.36.162v-5.16c0-2.84.49-6.23 1.09-7.55 1.04-2.29 1.41-2.39 9.26-2.39z" />
          <path id="webDevelopingB" 
            d="m82.8 180c-2.08-.0142-3.43.0312-3.53.139-.213.215-.387 8.55-.387 18.5v18.1h11.2c11.2 0 12.2-1.03 13.2-2.54 1.23-1.88 2.23-4.07 1.53-8.2-1.84-10.7-2.1-8.05-.885-14.6.581-3.12.177-5.05-1.08-7.5 0 0-1.41-1.56-2.44-2.22-3.12-1.99-9.68-1.53-9.68-1.53-3.05-.129-5.87-.203-7.95-.217zm-.988 3.97h8.67c7.76 0 8.87.303 9.86 1.49 1.56 1.87 1.66 7.3.0957 9.08-1.93 2.19-5.75 1.59-9.19 1.54-2.56-.0371-8.84-.143-9.21-.51-.367-.367-.23-3.13-.23-6.14zm-.35 15.9 9.02.0449c7.52 0 9.99.319 10.9 1.41 1.59 1.92 1.65 8.31.0957 10.2-1.02 1.23-3.15 1.53-11 1.53l-9.02-.0449v-6.56z" />
          <path id="webDevelopingD" 
            d="m136 179c-2.34-.001-4.53.0303-6.26.104-.601.0254-.839 6.59-.664 18.3l.271 18.3 10.5.264c5.96.15 11.1-.14 11.8-.672 3.14-2.23 4.73-8.24 4.73-17.8 0-9.31-1.71-16-4.55-17.8-.596-.368-8.86-.67-15.9-.674zm-4.57 3.89h9.31c9.89.001 9.4.0434 11 2.54 1.23 1.88 1.73 4.85 1.94 11.5.0925 3.28-.516 12.3-2.55 14.1-1.79 1.62-10.1.906-10.1.906h-9.06l-.279-14.5-.281-14.5z" />
          <use 
            id="webDevelopingE2" 
            xlink:href="#webDevelopingE" 
            transform="translate(111 -1)" 
            height="100%" 
            width="100%" 
            y="0" 
            x="0" />
          <path id="webDevelopingV" 
            d="m195 199c-3.72-9.4-7.03-17.8-7.37-18.7-.386-1.05.649-1.55 1.47-1.54 1.18.0102 11.5 25.6 12.3 28.7.822 3.24 1.85.318 6.75-12.1 2.99-7.59 5.14-13.9 5.44-15 .555-2.18 2.23-2.29 3.13-.825.696 1.13-13.6 36.7-14.7 36.6-.116-.0102-3.25-7.7-6.97-17.1z" />
          <use 
            id="webDevelopingE3" 
            xlink:href="#webDevelopingE" 
            transform="translate(170 -1)" 
            height="100%" 
            width="100%" 
            y="0" 
            x="0" />
          <path id="webDevelopingL" 
            d="m263 216c-13.2-.429-14.5-2.65-14.5-23.9-.003-7.97-.515-12.9.932-12.9 1.42-.0203 1.38 4.83 1.38 12.4 0 12.2.733 17.9 3.58 19.7.625.397 5.04.728 9.81.736 7.95.0132 8.67.165 8.67 1.83 0 2.42-.11 2.44-9.83 2.13z" />
          <path id="webDevelopingO" 
            d="m289 179c-3.36-.0202-6.28.128-7.2.5-2.72 1.1-4.64 8.8-4.63 18.6.004 8.87.882 12.5 3.99 16.4.64.802 4 1.17 10.6 1.17 11.3 0 12.6-.776 14.5-8.67 2.21-9.2.084-23.3-4.01-26.7-.851-.707-7.68-1.21-13.3-1.24zm-.0723 3.99c.864-.0008 1.84.0177 2.96.0508 8.55.254 9.09.394 10.9 2.8 2.89 3.88 3.37 15.9.865 21.6 0 0-1.25 2.21-2.54 3.06-2.62 1.74-5.06 1.69-8.85 1.75-9.33.161-9.36-.261-11-2.82-2.44-3.73-2.66-19.6-.225-23.3 1.46-2.22 1.9-3.1 7.95-3.1z" />
          <path id="webDevelopingP" 
            d="m311 179-.254 19v.002c-.186 13.9-.864 18 .613 18 1.48-.0216.871-3.69.895-7.74l.0371-6.67h10.1c10.1.002 10.5-.0847 12.3-2.37 2.45-3.12 3.33-8.7 2.09-13.3-1.7-6.3-3.1-6.94-15.2-6.96l-10.6-.0137zm1.84 3.8 9.03.102c11.7.002 13 .775 13 7.76 0 3.41-.441 4.64-2.08 5.79-2.69 1.88-17.3.973-20.1.996.003-3.25.003-4.99.0332-8.47l.0527-6.17z" />
          <path id="webDevelopingI" 
            d="m341 197c0-11.9.02-18.8 1.43-18.8 1.41-.0153 1.33 7.1 1.33 19s.292 18.6-1.38 18.7c-1.67.0295-1.38-6.96-1.38-18.8z" />
          <path id="webDevelopingN" 
            d="m348 198-.273-18.9 8.44-.266c14.9-.469 16.4 1.69 16.4 23.7 0 9.16.522 13.6-.938 13.5-1.46-.0549-1.24-5.9-1.06-13.4.135-5.65-.734-17.7-3.24-18.9-2.99-1.82-9.26-1.33-9.26-1.33l-8.46.352.278 16.1c.172 9.94.911 17-.665 17.1-1.58.0132-1.03-5.27-1.22-17.9z" />
          <path id="webDevelopingG" 
            d="m377 209c-2.66-7.61-.406-24.2 3.11-27.8.673-.695 4.65-1.19 10.5-1.31 8.93-.176 9.39-.0905 9.67 1.82.29 1.94.112 1.21-9.06 1.21-3.14 0-8.89.0997-9.61.733-.571.506-1.95 4.43-1.95 4.43-2.56 5.45-2.14 18 .518 22.1 1.56 2.37 2.13 2.53 10 2.81l7.84.211v-6.33-6.33l-6.03.0885c-5.94.0875-6.56-.179-6.56-1.88 0-1.72.625-1.87 7.5-1.87h7.5v9.79c0 5.38-.0757 8.61-.416 9.2-13.2-.107-20.1 1.49-23-6.8z" />
        </g>
      </g>
      <g id="webDevelopingGreen" style="fill:#344E41">
        <use 
          id="webDevelopingLettersClone" 
          xlink:href="#webDevelopingLetters" 
          height="100%" 
          width="100%" 
          y="0" 
          x="0" />
      </g>
    </g>
    <path id="spider" style="fill:#d5d5d5;filter:url(#filter4707)" 
      d="m107 249c.0777-4.81-1.32-7.43 0-11.1.903-.231 2.42-.446 2.54-.008.446 1.68.794.861 3.45 1.62.672-1.93.735-2.1 2.41-2.1l.672 10.1c.672-3.37 1.01-7.23 0-11.1 1.78-.724 4.15.626 6.71 4.51 2.18 3.31 3.83 6.56 5.72 9.95-.672-3.37-6.05-16.9-12.4-15.4 7.39-1.93 10.4-.965 16.8 1.45-2.02-2.41-3.67-2.49-7.06-3.37-4.01-1.05-5.04-.482-9.07-.482 1.68-.964 3.36-2.89 3.36-5.3l-2.69 1.93c.672-6.27-2.35-9.41-6.05-11.3-.118-15.5.011-29.6-.01-44.4-.01-7.23.0612-15.2-.0632-22.2-.0984-5.51-.6-16.5 2.76-20.3 0 0-.336.482-1.34 0l-.303-3.27c.118 5.93-1.46 10.5-1.33 16.9.472 23.6-.0813 51.2.207 73.4-3.7 2.89-6.64 3.14-6.64 11.3-1.68-.965-2.02-1.45-3.02-2.89 0 0-1.34 0 .336 2.41 1.01.964 1.01.481 1.68 1.93-7.06-2.89-3.36-2.89-14.4-3.37 1.01.965 3.31.668 4.7.965 4.36.925 8.51 3.78 11.8 5.78-4.7.481-5 .514-7.39 3.37-1.64 1.96-3.7 4.34-4.7 7.71 4.24-5.17 7.17-9.3 12.1-9.16.179 3.62-1.68 7.05 1.35 12.5z" />
  </g>
</svg>